<svg fill="#000000" xmlns="http://www.w3.org/2000/svg"  viewBox="0 0 64 64" width="78px" height="78px"><path d="M 32.5 3 C 32.5 3 30.5 4.396 30.5 7 C 30.5 7 31.441484 7.3760759 31.886719 7.5527344 C 31.102096 8.938364 31.040765 10.79353 32.179688 11.931641 C 32.779688 12.531641 33.578297 12.801594 34.404297 12.808594 C 35.509297 12.818594 36.659547 12.355078 37.435547 11.580078 C 37.832591 11.182428 38.056913 10.680117 38.162109 10.140625 C 38.430681 10.257381 38.769759 10.396167 39 10.5 C 39.5 6 35.156 3.616 32.5 3 z M 22 6 C 18 6 15 10 15 13.5 C 15 15.63479 16.125709 16.525731 17.308594 16.878906 C 16.806693 17.934004 16.391598 19.089101 16.109375 20.369141 C 15.608375 22.640141 16.846797 24.942484 18.966797 25.896484 L 24.775391 28.669922 L 19.998047 37.347656 C 18.526564 36.495848 16.82261 36 15 36 C 9.477 36 5 40.477 5 46 C 5 51.523 9.477 56 15 56 C 20.523 56 25 51.523 25 46 C 25 43.796607 24.279527 41.765855 23.072266 40.113281 L 30.435547 29.294922 C 31.330547 27.979922 31.116594 26.204625 29.933594 25.140625 L 24.683594 20.419922 C 25.154594 17.695922 27.685547 16.419922 27.685547 16.419922 L 29.810547 21.097656 C 30.048547 21.620656 30.499828 22.015594 31.048828 22.183594 L 36.912109 23.966797 L 36.439453 24.439453 C 35.923453 24.955453 35.853437 25.766281 36.273438 26.363281 L 40.085938 31.78125 C 38.184881 33.600919 37 36.160341 37 39 C 37 44.064299 40.767109 48.238246 45.650391 48.898438 L 41 52 L 36.1875 51.060547 C 35.3155 50.890547 34.413953 51.139422 33.751953 51.732422 L 29 56 L 57 56 L 54.240234 45.882812 C 55.945736 44.089277 57 41.670465 57 39 C 57 33.477 52.523 29 47 29 C 46.389 29 45.792891 29.062969 45.212891 29.167969 L 46.517578 32.023438 C 46.677578 32.012437 46.837 32 47 32 C 50.86 32 54 35.14 54 39 C 54 42.86 50.86 46 47 46 C 43.14 46 40 42.86 40 39 C 40 37.180743 40.708902 35.533213 41.851562 34.289062 L 45.773438 39.863281 C 46.065438 40.278281 46.529953 40.5 47.001953 40.5 C 47.300953 40.5 47.601281 40.412562 47.863281 40.226562 C 48.540281 39.749562 48.703562 38.814719 48.226562 38.136719 L 39.451172 25.667969 L 40.560547 24.560547 C 40.587656 24.533484 40.606258 24.501214 40.630859 24.472656 L 41.423828 24.046875 C 41.760828 23.864875 41.929078 23.475469 41.830078 23.105469 L 41.666016 22.486328 C 41.556016 22.073328 41.227547 21.756109 40.810547 21.662109 L 39.355469 21.333984 L 32.683594 18.919922 L 29.353516 9.3476562 C 28.971516 8.2486562 27.738828 7.6979687 26.673828 8.1679688 C 26.553236 8.2211574 26.405606 8.2997785 26.277344 8.359375 C 25.885668 7.4797656 24.821023 6 22 6 z M 31.824219 32.435547 L 28.005859 36.533203 L 28.898438 42.34375 C 28.959437 42.74175 29.253531 43.062156 29.644531 43.160156 L 33 44 L 33.572266 43.021484 C 33.807266 42.620484 33.735437 42.111016 33.398438 41.791016 L 32.669922 41.099609 L 31.824219 32.435547 z M 15 39 C 18.86 39 22 42.14 22 46 C 22 49.86 18.86 53 15 53 C 11.14 53 8 49.86 8 46 C 8 42.14 11.14 39 15 39 z M 15 44 A 2 2 0 0 0 15 48 A 2 2 0 0 0 15 44 z"/></svg>